<svg id="icon" xmlns="http://www.w3.org/2000/svg" viewBox="0 0 512 512">
            <defs>
                <linearGradient id="bgGrad" x1="0%" y1="0%" x2="100%" y2="100%">
                    <stop offset="0%" style="stop-color:#2563eb;stop-opacity:1"/>
                    <stop offset="100%" style="stop-color:#1e40af;stop-opacity:1"/>
                </linearGradient>
                <linearGradient id="boxGrad" x1="0%" y1="0%" x2="100%" y2="100%">
                    <stop offset="0%" style="stop-color:#60a5fa;stop-opacity:1"/>
                    <stop offset="100%" style="stop-color:#3b82f6;stop-opacity:1"/>
                </linearGradient>
            </defs>
            
            <circle cx="256" cy="256" r="256" fill="url(#bgGrad)"/>
            
            <g transform="translate(256, 256)">
                <path d="M -80 40 L -80 120 L 0 160 L 80 120 L 80 40 L 0 80 Z" fill="url(#boxGrad)" stroke="#fff" stroke-width="6"/>
                
                <path d="M -80 40 L -80 120 L 0 160 L 0 80 Z" fill="#1e40af" opacity="0.8"/>
                
                <path d="M 80 40 L 80 120 L 0 160 L 0 80 Z" fill="#1e3a8a" opacity="0.8"/>
                
                <path d="M -80 -40 L -80 40 L 0 80 L 0 0 Z" fill="#3b82f6" stroke="#fff" stroke-width="6"/>
                <path d="M 80 -40 L 80 40 L 0 80 L 0 0 Z" fill="#2563eb" stroke="#fff" stroke-width="6"/>
                
                <rect x="-60" y="50" width="120" height="30" fill="#fff" opacity="0.9" rx="4"/>
                
                <path d="M -30 60 L -15 75 L 35 35" stroke="#10b981" stroke-width="10" stroke-linecap="round" stroke-linejoin="round" fill="none"/>
            </g>
        </svg>